<svg xmlns="http://www.w3.org/2000/svg" data-name="Layer 1" viewBox="0 0 64 64"><path fill="#4c5c68" d="M28.865 38.535l-.951-.585a.87.87 0 0 1-.414-.741V33h1.707v3.7l.569.35a.869.869 0 0 1 .294 1.179h0A.869.869 0 0 1 28.865 38.535zM25.6 12.84c-6.48 1.76-11.47 6.24-13.06 12.64l-5.12.02c1.74-9.16 8.8-15.65 17.95-17.75z"/><path fill="#1985a1" d="M12.84,38.4a7,7,0,0,0-.3-12.92,7,7,0,0,0-5.12.01v.01a7,7,0,0,0,.33,13.13Z"/><path fill="#4c5c68" d="M25.48,51.46c-6.4-1.59-10.88-6.58-12.64-13.06a23.233,23.233,0,0,1-.74-4.07A2.508,2.508,0,0,0,9.61,32a2.482,2.482,0,0,0-2.49,2.68,28.284,28.284,0,0,0,.63,3.95c2.1,9.15,8.59,16.21,17.75,17.95Z"/><path fill="#1985a1" d="M38.4,51.16a7,7,0,0,0-12.92.3,7,7,0,0,0,.01,5.12h.01a6.99,6.99,0,0,0,13.09-.24Z"/><path fill="#4c5c68" d="M56.76,38.44c-1.4,9.6-8.65,15.93-18.17,17.9a31.086,31.086,0,0,1-3.92.56c-.06,0-.13.01-.19.01a2.513,2.513,0,0,1-.15-5.02,23.229,23.229,0,0,0,4.07-.73c6.48-1.76,11.47-6.24,13.06-12.64Z"/><path fill="#1985a1" d="M51.07,25.65a6.992,6.992,0,0,0,.39,12.87A6.873,6.873,0,0,0,54,39a6.966,6.966,0,0,0,2.75-.56h.01a7,7,0,0,0-.42-13.03V25.4Z"/><path fill="#4c5c68" d="M56.93,29.77a2.548,2.548,0,0,1-2.04,2.65,2.521,2.521,0,0,1-3.02-2.19,27.217,27.217,0,0,0-.8-4.58c-1.77-6.6-6.02-11.86-12.49-13.27a7,7,0,0,0-.14-5.13c9.6,1.39,15.92,8.64,17.9,18.15A32.388,32.388,0,0,1,56.93,29.77Z"/><polygon fill="#4c5c68" points="37 38 32 34 27 34 27 28 32 28 37 24 37 38"/><path fill="#dd1c1a" d="M24.044,29H27a0,0,0,0,1,0,0v4a0,0,0,0,1,0,0H24.044A1.044,1.044,0,0,1,23,31.956V30.044A1.044,1.044,0,0,1,24.044,29Z"/><path fill="#ffbf69" d="M37,28v6c2.209,0,4-1.343,4-3S39.209,28,37,28Z"/><circle cx="32" cy="10" r="7" fill="#1985a1"/></svg>